<svg xmlns="http://www.w3.org/2000/svg" width="520" height="580">
  <defs>
    <linearGradient id="bg-dark" x1="0" y1="0" x2="1" y2="1">
      <stop offset="0%" stop-color="#14151A" />
      <stop offset="50%" stop-color="#23262E" />
      <stop offset="100%" stop-color="#2E323D" />
    </linearGradient>
  </defs>

  <rect x="0" y="0" width="520" height="580" fill="url(#bg-dark)" rx="18" />

  <!-- window bar -->
  <rect x="20" y="20" width="480" height="30" rx="8" fill="#020617" opacity="0.95" />
  <circle cx="38" cy="35" r="5" fill="#ee5d43" />
  <circle cx="56" cy="35" r="5" fill="#FFE66D" />
  <circle cx="74" cy="35" r="5" fill="#96E072" />

  <text x="100" y="38"
        fill="#746f77"
        font-family="JetBrains Mono, Fira Code, SFMono-Regular, Menlo, Monaco, Consolas, monospace"
        font-size="12">
    profile.yaml — Andromeda
  </text>

  <!-- code -->
  <g font-family="JetBrains Mono, Fira Code, SFMono-Regular, Menlo, Monaco, Consolas, monospace"
     font-size="14"
     fill="#D5CED9">

    <!-- line numbers -->
    <g fill="#746f77">
      <text x="32" y="76">1</text>
      <text x="32" y="100">2</text>
      <text x="32" y="124">3</text>
      <text x="32" y="148">4</text>
      <text x="32" y="172">5</text>
      <text x="32" y="196">6</text>
      <text x="32" y="220">7</text>
      <text x="32" y="244">8</text>
      <text x="32" y="268">9</text>
      <text x="28" y="292">10</text>
      <text x="28" y="316">11</text>
      <text x="28" y="340">12</text>
      <text x="28" y="364">13</text>
      <text x="28" y="388">14</text>
      <text x="28" y="412">15</text>
      <text x="28" y="436">16</text>
      <text x="28" y="460">17</text>
      <text x="28" y="484">18</text>
      <text x="28" y="508">19</text>
      <text x="28" y="532">20</text>
    </g>

    <!-- profile -->
    <text x="64" y="76" fill="#00e8c6">profile:</text>
    <text x="92" y="100">
      name: <tspan fill="#a5b4fc">SIHWAN Lee</tspan>
    </text>
    <text x="92" y="124">
      alias: <tspan fill="#a5b4fc">WhAnci</tspan>
    </text>
    <text x="92" y="148">
      role: <tspan fill="#a5b4fc">cloud-computing-junior</tspan>
    </text>
    <text x="92" y="172">
      location: <tspan fill="#a5b4fc">KR</tspan>
    </text>
    <text x="92" y="196">
      languages: <tspan fill="#7cb7ff">[korean, english, japanese]</tspan>
    </text>

    <!-- work -->
    <text x="64" y="228" fill="#00e8c6">work:</text>
    <text x="92" y="252">currently:</text>
    <text x="120" y="276">
      - company: <tspan fill="#96E072">GJMST</tspan>
    </text>
    <text x="120" y="300">
      position: <tspan fill="#96E072">student</tspan>
    </text>

    <!-- stack -->
    <text x="64" y="332" fill="#00e8c6">stack:</text>
    <text x="92" y="356">
      backend: <tspan fill="#7cb7ff">[Go, Python]</tspan>
    </text>
    <text x="92" y="380">
      infra: <tspan fill="#7cb7ff">[AWS, Docker, K8s]</tspan>
    </text>

    <!-- fun_fact -->
    <text x="64" y="412" fill="#00e8c6">fun_fact:</text>
    <text x="92" y="436">
      loves: <tspan fill="#ff00aa">[chuu💗, anime, J-POP]</tspan>
    </text>
    <text x="92" y="460">
      oshi: [Himmel, Akane Kurokawa, War Devil, Anna Yanami]
    </text>
    <text x="92" y="484">
      hates: <tspan fill="#ee5d43">[earthworm]</tspan>
    </text>

    <!-- music -->
    <text x="64" y="516" fill="#00e8c6">music:</text>
    <text x="92" y="540">
      favorite: <tspan fill="#FFE66D">natori - Odoriko</tspan>
    </text>
    <text x="92" y="564">
      recommended: <tspan fill="#FFE66D">chuu - XO, My Cyberlove</tspan>
    </text>
  </g>
</svg>
