<svg xmlns="http://www.w3.org/2000/svg" width="760" height="360">
  <!-- Andromeda-like gradient background -->
  <defs>
    <linearGradient id="bg-dark" x1="0" y1="0" x2="1" y2="1">
      <stop offset="0%" stop-color="#14151A" />
      <stop offset="50%" stop-color="#23262E" />
      <stop offset="100%" stop-color="#2E323D" />
    </linearGradient>
  </defs>

  <rect x="0" y="0" width="760" height="360" fill="url(#bg-dark)" rx="18" />

  <!-- window bar -->
  <rect x="24" y="24" width="712" height="30" rx="8" fill="#020617" opacity="0.95" />
  <circle cx="44" cy="39" r="5" fill="#ee5d43" />
  <circle cx="64" cy="39" r="5" fill="#FFE66D" />
  <circle cx="84" cy="39" r="5" fill="#96E072" />

  <text x="110" y="42"
        fill="#746f77"
        font-family="JetBrains Mono, Fira Code, SFMono-Regular, Menlo, Monaco, Consolas, monospace"
        font-size="12">
    profile.yaml — Andromeda
  </text>

  <!-- code area -->
  <g font-family="JetBrains Mono, Fira Code, SFMono-Regular, Menlo, Monaco, Consolas, monospace"
     font-size="14"
     fill="#D5CED9">

    <!-- line numbers -->
    <g fill="#746f77">
      <text x="40" y="82">1</text>
      <text x="40" y="106">2</text>
      <text x="40" y="130">3</text>
      <text x="40" y="154">4</text>
      <text x="40" y="178">5</text>
      <text x="40" y="202">6</text>
      <text x="40" y="226">7</text>
      <text x="40" y="250">8</text>
      <text x="40" y="274">9</text>
      <text x="36" y="298">10</text>
      <text x="36" y="322">11</text>
      <text x="36" y="346">12</text>
    </g>

    <!-- YAML content (your data) -->
    <!-- profile -->
    <text x="72" y="82" fill="#00e8c6">profile:</text>
    <text x="102" y="106">
      name: <tspan fill="#a5b4fc">SIHWAN Lee</tspan>
    </text>
    <text x="102" y="130">
      alias: <tspan fill="#a5b4fc">WhAnci</tspan>
    </text>
    <text x="102" y="154">
      role: <tspan fill="#a5b4fc">cloud-computing-junior</tspan>
    </text>
    <text x="102" y="178">
      location: <tspan fill="#a5b4fc">KR</tspan>
    </text>
    <text x="102" y="202">
      languages: <tspan fill="#7cb7ff">[korean, english, japanese]</tspan>
    </text>

    <!-- work -->
    <text x="72" y="230" fill="#00e8c6">work:</text>
    <text x="102" y="254">
      currently:
      <tspan x="134" y="278">- company: <tspan fill="#96E072">GJMST</tspan></tspan>
      <tspan x="134" y="302">  position: <tspan fill="#96E072">student</tspan></tspan>
    </text>

    <!-- 오른쪽 컬럼: stack / fun_fact / music -->
    <!-- stack -->
    <text x="420" y="82" fill="#00e8c6">stack:</text>
    <text x="450" y="106">
      backend: <tspan fill="#7cb7ff">[Go, Python]</tspan>
    </text>
    <text x="450" y="130">
      infra: <tspan fill="#7cb7ff">[AWS, Docker, K8s]</tspan>
    </text>

    <!-- fun_fact -->
    <text x="420" y="162" fill="#00e8c6">fun_fact:</text>
    <text x="450" y="186">
      loves: <tspan fill="#ff00aa">[chuu💗, anime, J-POP]</tspan>
    </text>
    <text x="450" y="210">
      oshi: [Himmel, Akane Kurokawa]
    </text>
    <text x="450" y="234">
      <tspan x="450" y="234">      War Devil, Anna Yanami]</tspan>
    </text>
    <text x="450" y="258">
      hates: <tspan fill="#ee5d43">[earthworm]</tspan>
    </text>

    <!-- music -->
    <text x="420" y="290" fill="#00e8c6">music:</text>
    <text x="450" y="314">
      favorite: <tspan fill="#FFE66D">natori - Odoriko</tspan>
    </text>
    <text x="450" y="338">
      recommended: <tspan fill="#FFE66D">chuu - XO, My Cyberlove</tspan>
    </text>
  </g>
</svg>
